<?xml version="1.0" standalone="no"?><!DOCTYPE svg PUBLIC "-//W3C//DTD SVG 1.1//EN" "http://www.w3.org/Graphics/SVG/1.1/DTD/svg11.dtd"><svg t="1618473647951" class="icon" viewBox="0 0 1024 1024" version="1.1" xmlns="http://www.w3.org/2000/svg" p-id="4243" xmlns:xlink="http://www.w3.org/1999/xlink" width="38" height="38"><defs><style type="text/css"></style></defs><path d="M136.534099 0.00026a49.120975 49.120975 0 0 0-35.839982 15.359992C91.309122 25.600247 85.334125 38.40024 85.334125 51.200234v921.599532a49.124975 49.124975 0 0 0 15.359992 35.839982A50.543974 50.543974 0 0 0 136.534099 1023.99974h750.931619a49.121975 49.121975 0 0 0 35.839981-15.359992 50.544974 50.544974 0 0 0 15.359993-35.839982V290.134113L648.532839 0.00026z" fill="#8BC34A" p-id="4244"></path><path d="M938.663692 290.133113H699.725813a52.499973 52.499973 0 0 1-51.199974-51.199974V0.00026z" fill="#D3F2AA" p-id="4245"></path><path d="M320.681005 547.571982c-13.247993 8.064996-27.419986 14.899992-39.634979 24.344988-26.799986 20.709989-26.924986 46.452976-0.323 67.312965 34.193983 26.881986 75.506962 36.043982 117.05594 43.312978 23.741988 4.193998 47.957976 5.870997 73.377963 8.816996 0.839-13.591993 1.461999-24.516988 2.257999-38.70998 23.075988 20.15099 43.978978 38.40898 66.799966 58.28097l-67.936965 59.54997c0-10.494995-0.817-17.118991 0.171999-23.483988 2.279999-14.623993-4.515998-18.299991-17.99999-19.099991-52.473973-3.225998-103.958947-12.687994-151.335924-36.580981a180.927908 180.927908 0 0 1-46.731976-33.914983c-20.17699-20.51499-19.57699-46.450976-1.120999-68.816965 17.225991-20.799989 40.387979-32.537983 65.441966-41.011979z m376.693809 2.299999c25.329987 10.499995 49.029975 23.549988 63.899968 48.043975 10.752995 17.741991 11.031994 37.140981-2.580999 52.817974-11.849994 13.548993-26.021987 26.021987-41.419979 35.247982-39.91498 23.870988-124.453937 44.086978-159.680919 40.365979a29.581985 29.581985 0 0 1-1.719999-6.021997c-3.289998-28.430986-1.225999-28.817985 26.838986-34.043983a1045.486469 1045.486469 0 0 0 109.415945-26.365986c15.399992-4.644998 29.999985-14.967992 42.365978-25.699987 20.27999-17.677991 20.10799-38.92598 0.172-57.269971-11.182994-10.279995-25.032987-17.806991-37.290981-27.075986z m-69.717964-121.140939c12.042994 0 21.655989 0.731 28.599985 2.193999 6.945996 1.483999 12.558994 3.956998 16.666992 7.375996a17.569991 17.569991 0 0 1 5.913997 7.099997v0.108c0.516 1.375999 1.199999 4.451998 1.199999 15.225992v142.708928c0 6.580997-1.870999 11.892994-5.569997 15.784992-3.612998 3.999998-9.399995 6.859997-17.161991 8.451995-7.505996 1.526999-17.913991 2.322999-30.967985 2.322999-18.559991 0-31.613984-1.892999-39.849979-5.763997-8.644996-4.042998-13.053993-10.799995-13.053994-20.08599V460.710026c0-6.967996 0.645-11.978994 1.999999-15.290992l0.022-0.065a19.35499 19.35499 0 0 1 7.655996-8.752996 48.061976 48.061976 0 0 1 17.075992-6.257997h0.043c6.730997-1.074999 15.956992-1.612999 27.419986-1.612999z m-194.972901 1.441L375.133978 628.562941h-38.299981l51.332974-178.992909h-26.989986v39.979979h-35.785982v-59.377969z m66.968966-1.441c18.92499 0 31.957984 1.892999 39.892979 5.784997 8.451996 4.042998 12.752994 10.799995 12.752994 20.06499v51.527974c0 5.892997-0.473 10.021995-1.461999 12.666994l-0.065 0.171999c-1.268999 2.623999-3.870998 4.967997-7.978996 7.182997a38.022981 38.022981 0 0 1-13.075994 4.236998c-4.537998 0.688-11.784994 1.010999-22.150988 1.010999h-23.439989v77.786961h30.021985v-49.528975h38.150981v68.925965H445.715942v-92.151953a37.289981 37.289981 0 0 1 0.8-7.870996 11.399994 11.399994 0 0 1 2.472998-6.451997c0.946-1.526999 2.838999-3.074998 5.935997-4.859998a33.916983 33.916983 0 0 1 12.879994-4.086998 166.155916 166.155916 0 0 1 22.365988-1.160999h23.978988v-63.399968h-30.023985v40.969979h-38.40998v-34.233982c0-9.956995 4.299998-16.989991 12.773994-20.96799 8.085996-3.763998 21.548989-5.591997 41.161979-5.591997z m142.238927 19.84999h-30.021984v161.572918h30.043984V448.581032zM745.63579 428.000043a36.064982 36.064982 0 1 1-36.064982 36.064981A36.064982 36.064982 0 0 1 745.63579 428.000043z m0 18.79999a17.290991 17.290991 0 1 0 17.290991 17.290991 17.290991 17.290991 0 0 0-17.290991-17.290991z" fill="#FFFFFF" p-id="4246"></path></svg>