<?xml version="1.0" standalone="no"?>
<!DOCTYPE svg PUBLIC "-//W3C//DTD SVG 1.1//EN" "http://www.w3.org/Graphics/SVG/1.1/DTD/svg11.dtd"><svg t="1618473351445"
  class="icon" viewBox="0 0 1024 1024" version="1.1" xmlns="http://www.w3.org/2000/svg" p-id="934"
  xmlns:xlink="http://www.w3.org/1999/xlink" width="38" height="38">
  <defs>
    <style type="text/css"></style>
  </defs>
  <path
    d="M136.533604 0.00026a49.119975 49.119975 0 0 0-35.839982 15.359992C91.307627 25.600247 85.33463 38.40024 85.33463 51.200234v921.599532a49.119975 49.119975 0 0 0 15.359992 35.839982 50.545974 50.545974 0 0 0 35.839982 15.359992h750.931619a49.119975 49.119975 0 0 0 35.839981-15.359992 50.546974 50.546974 0 0 0 15.359993-35.839982V290.134113L648.533344 0.00026z"
    fill="#A15FDE" p-id="935"></path>
  <path d="M938.666197 290.133113H699.733318a52.492973 52.492973 0 0 1-51.199974-51.199974V0.00026z" fill="#C386F0"
    p-id="936"></path>
  <path
    d="M781.678276 378.070068v335.808829c0 37.214981-43.781978 67.425966-100.699948 67.425966S580.715378 751.099879 580.715378 713.878897s43.781978-67.425966 100.26295-67.425965a137.47693 137.47693 0 0 1 56.914971 11.825994V423.170045l-292.029852 68.733965v299.040848c0 37.215981-43.781978 67.425966-102.013948 67.425966s-102.451948-30.209985-102.451948-67.425966 45.971977-67.425966 102.451948-67.425965a137.03993 137.03993 0 0 1 58.23197 12.259993V445.932034a43.781978 43.781978 0 0 1 33.712983-43.783978l291.593852-67.862966a43.782978 43.782978 0 0 1 54.290972 43.781978z"
    fill="#FFFFFF" p-id="937"></path>
</svg>
