<?xml version="1.0" standalone="no"?><!DOCTYPE svg PUBLIC "-//W3C//DTD SVG 1.1//EN" "http://www.w3.org/Graphics/SVG/1.1/DTD/svg11.dtd"><svg t="1618473519515" class="icon" viewBox="0 0 1024 1024" version="1.1" xmlns="http://www.w3.org/2000/svg" p-id="1890" xmlns:xlink="http://www.w3.org/1999/xlink" width="38" height="38"><defs><style type="text/css"></style></defs><path d="M136.533604 0.00026a49.119975 49.119975 0 0 0-35.839982 15.359992C91.307627 25.600247 85.33463 38.40024 85.33463 51.200234v921.599532a49.119975 49.119975 0 0 0 15.359992 35.839982 50.545974 50.545974 0 0 0 35.839982 15.359992h750.931619a49.119975 49.119975 0 0 0 35.839981-15.359992 50.546974 50.546974 0 0 0 15.359993-35.839982V290.134113L648.533344 0.00026z" fill="#3CD3C7" p-id="1891"></path><path d="M938.666197 290.133113H699.733318a52.492973 52.492973 0 0 1-51.199974-51.199974V0.00026z" fill="#D2FEFF" p-id="1892"></path><path d="M778.972278 766.645871l-108.511945-168.399915a17.066991 17.066991 0 0 0-14.762993-7.809996c-6.078997 0-11.285994 3.475998-14.762992 7.809996l-58.160971 90.285954-130.210933-210.944893a17.063991 17.063991 0 0 0-14.762993-7.809996c-6.078997 0-11.285994 3.475998-14.762992 7.809996L244.219549 766.644871a15.767992 15.767992 0 0 0 0 17.365991 16.117992 16.117992 0 0 0 14.762993 8.681995h505.226743a19.37099 19.37099 0 0 0 15.618992-8.681995c2.619999-6.078997 2.619999-13.020993-0.857999-17.365991zM631.394353 448.057032a43.413978 43.413978 0 1 0 43.415978-43.417977 43.412978 43.412978 0 0 0-43.415978 43.417977z" fill="#FFFFFF" p-id="1893"></path></svg>