<?xml version="1.0" standalone="no"?><!DOCTYPE svg PUBLIC "-//W3C//DTD SVG 1.1//EN" "http://www.w3.org/Graphics/SVG/1.1/DTD/svg11.dtd"><svg t="1618473528370" class="icon" viewBox="0 0 1024 1024" version="1.1" xmlns="http://www.w3.org/2000/svg" p-id="2028" xmlns:xlink="http://www.w3.org/1999/xlink" width="38" height="38"><defs><style type="text/css"></style></defs><path d="M136.533604 0.00026a49.119975 49.119975 0 0 0-35.839982 15.359992C91.307627 25.600247 85.33463 38.40024 85.33463 51.200234v921.599532a49.119975 49.119975 0 0 0 15.359992 35.839982 50.545974 50.545974 0 0 0 35.839982 15.359992h750.931619a49.119975 49.119975 0 0 0 35.839981-15.359992 50.546974 50.546974 0 0 0 15.359993-35.839982V290.134113L648.533344 0.00026z" fill="#00B589" p-id="2029"></path><path d="M938.666197 290.133113H699.733318a52.492973 52.492973 0 0 1-51.199974-51.199974V0.00026z" fill="#1BD4A7" p-id="2030"></path><path d="M633.655352 551.96898V404.417055a11.151994 11.151994 0 0 0-0.916-4.256998 10.029995 10.029995 0 0 0-0.539-1.347l-0.054-0.053999a11.199994 11.199994 0 0 0-7.005996-5.873998l-127.611935-34.489982a10.454995 10.454995 0 0 0-6.789997 0.377l-106.810946 42.199978a13.199993 13.199993 0 0 0-4.364997 1.724 11.692994 11.692994 0 0 0-4.849998 9.484995l1.021 137.68593a11.510994 11.510994 0 0 0 7.059996 10.562994l127.719935 51.734974a1.186999 1.186999 0 0 0 0.431 0.054 9.629995 9.629995 0 0 0 7.705996-0.216c0.162-0.054 0.377-0.054 0.485-0.108l107.941945-49.632975a11.236994 11.236994 0 0 0 6.574997-10.292994zM513.964412 451.033031l-73.937962-29.477985-22.687989-9.160995 78.086961-30.878985 96.840951 26.190987z m97.433951 93.499952l-85.631957 39.44798-0.376999-113.277942 86.008956-47.207976v121.037938z m-112.576943 81.099959l-0.054-0.054a11.199994 11.199994 0 0 0-7.005996-5.873997l-127.611936-34.489982a10.454995 10.454995 0 0 0-6.789996 0.377l-106.810946 42.299978a13.199993 13.199993 0 0 0-4.364998 1.724999 11.692994 11.692994 0 0 0-4.849997 9.484995l1.023999 137.689931a11.510994 11.510994 0 0 0 7.059997 10.562994L377.133482 839.042834a1.187999 1.187999 0 0 0 0.431 0.054 9.629995 9.629995 0 0 0 7.705996-0.216c0.162-0.054 0.377-0.054 0.484999-0.108l107.888946-49.686975a11.528994 11.528994 0 0 0 6.574996-10.454994V631.241939a11.152994 11.152994 0 0 0-0.915999-4.256997 9.924995 9.924995 0 0 0-0.482-1.352z m-118.34294 52.169974l-73.937962-29.477985-22.687989-9.160996 78.086961-30.878984 96.89395 26.189987-78.35496 43.327978z m97.487951 93.499952L392.333474 810.750848l-0.377-113.277942 86.008957-47.207976zM780.833277 626.983942a10.028995 10.028995 0 0 0-0.539-1.347l-0.054-0.054a11.199994 11.199994 0 0 0-7.005996-5.873997l-127.611936-34.489982a10.454995 10.454995 0 0 0-6.789996 0.377l-106.810946 42.199978a13.199993 13.199993 0 0 0-4.364998 1.724999 11.692994 11.692994 0 0 0-4.849997 9.484996l1.023999 137.68993a11.510994 11.510994 0 0 0 7.059997 10.562994l127.715935 51.673974a1.187999 1.187999 0 0 0 0.431 0.054 10.781995 10.781995 0 0 0 3.664998 0.7 10.522995 10.522995 0 0 0 4.041998-0.916c0.162-0.054 0.377-0.054 0.485-0.108l107.887945-49.686975a11.528994 11.528994 0 0 0 6.574996-10.454994V631.241939a10.199995 10.199995 0 0 0-0.861999-4.256997z m-118.83194 50.818974l-73.937962-29.477985-22.687989-9.160996 78.086961-30.878984 96.89495 26.190987-78.35596 43.326978z m97.487951 93.499952l-85.631957 39.44798-0.377-113.277942 86.008957-47.207976z" fill="#FFFFFF" p-id="2031"></path></svg>