<?xml version="1.0" standalone="no"?><!DOCTYPE svg PUBLIC "-//W3C//DTD SVG 1.1//EN" "http://www.w3.org/Graphics/SVG/1.1/DTD/svg11.dtd"><svg t="1618473569492" class="icon" viewBox="0 0 1024 1024" version="1.1" xmlns="http://www.w3.org/2000/svg" p-id="2716" xmlns:xlink="http://www.w3.org/1999/xlink" width="38" height="38"><defs><style type="text/css"></style></defs><path d="M136.533604 0.00026a49.119975 49.119975 0 0 0-35.839982 15.359992C91.307627 25.600247 85.33463 38.40024 85.33463 51.200234v921.599532a49.119975 49.119975 0 0 0 15.359992 35.839982 50.545974 50.545974 0 0 0 35.839982 15.359992h750.931619a49.119975 49.119975 0 0 0 35.839981-15.359992 50.546974 50.546974 0 0 0 15.359993-35.839982V290.134113L648.533344 0.00026z" fill="#8DA7C8" p-id="2717"></path><path d="M938.666197 290.133113H699.733318a52.492973 52.492973 0 0 1-51.199974-51.199974V0.00026z" fill="#D1DEF6" p-id="2718"></path><path d="M701.435317 518.605997c-6.651997-92.692953-84.090957-165.434916-179.360909-168.505915-95.228952-2.999998-177.44691 64.589967-190.332903 156.617921-71.705964 41.981979-105.993946 125.529936-83.631958 204.090896 22.362989 78.64396 95.768951 133.099932 179.483909 133.099932a191.371903 191.371903 0 0 0 79.68296-17.83199 188.961904 188.961904 0 0 0 88.951955 22.736988 192.353902 192.353902 0 0 0 48.465975-6.276997c69.789965-18.579991 122.205938-74.860962 134.342932-144.359927 12.178994-69.456965-18.122991-139.499929-77.599961-179.566908zM515.507412 375.534069c83.256958 0 150.719923 65.799967 150.719923 146.937926v2.077999a144.817926 144.817926 0 0 1-78.97596 124.532936 17.331991 17.331991 0 0 0-0.707 30.342985 18.413991 18.413991 0 0 0 17.956991 0.416 184.429906 184.429906 0 0 0 77.188961-77.978961 102.876948 102.876948 0 0 1-5.654997 132.223933 109.651944 109.651944 0 0 1-133.967932 21.699989 105.318947 105.318947 0 0 1-49.879975-115.429941 119.378939 119.378939 0 0 0 23.692988 2.784998 131.828933 131.828933 0 0 0 26.186987-2.784998 124.532937 124.532937 0 0 0 92.234953-80.846959c21.614989-63.970968-14.048993-132.846933-79.682959-153.919922-65.591967-21.032989-136.299931 13.716993-157.91092 77.645961a189.156904 189.156904 0 0 0-29.099985 6.317996c15.467992-67.298966 77.193961-114.853942 147.939925-114.019942z m-2.493999 224.250886a96.391951 96.391951 0 0 1 7.148996 9.767995 91.877953 91.877953 0 0 1 7.190997 16.459992 101.452948 101.452948 0 0 1-30.509985 0 112.381943 112.381943 0 0 1 4.654998-10.515995 97.164951 97.164951 0 0 1 11.514994-15.711992zM295.870523 734.460887c-40.818979-70.330964-15.799992-159.531919 55.989972-199.809899a154.127922 154.127922 0 0 1 150.012923 4.571998 18.499991 18.499991 0 0 0 26.809987-10.349995 17.291991 17.291991 0 0 0-8.146996-19.74399A191.205903 191.205903 0 0 0 412.879464 482.900015c20.28399-45.390977 70.371964-70.787964 120.126939-60.894969 49.799975 9.850995 85.750956 52.290973 86.208956 101.837948a100.176949 100.176949 0 0 1-5.735997 32.171984 106.451946 106.451946 0 0 1-71.784964 67.499965 112.478943 112.478943 0 0 0-9.310995-21.699989 123.328937 123.328937 0 0 0-15.420992-20.616989 127.192935 127.192935 0 0 0-115.969941-38.490981 125.624936 125.624936 0 0 0-35.871982 13.299994c-49.255975 27.724986-73.199963 84.299957-58.39997 137.83393s64.676967 90.699954 121.581938 90.573954a123.985937 123.985937 0 0 0 24.773987-2.493999 175.469911 175.469911 0 0 0 19.74399 19.95199c-67.960965 21.699989-142.156928-6.608997-176.94891-67.499966z m430.669781 4.530998a150.220924 150.220924 0 0 1-91.445953 69.290965A154.211922 154.211922 0 0 1 520.162409 793.899857l-3.574998-2.493999a144.318927 144.318927 0 0 1-71.784964-128.689935 17.249991 17.249991 0 0 0-4.987997-12.469993 18.164991 18.164991 0 0 0-12.594994-5.361997 18.454991 18.454991 0 0 0-18.28399 17.125991 178.567909 178.567909 0 0 0 30.509984 104.954947c-58.77497 9.642995-114.473942-28.929985-124.366937-86.208957s29.677985-111.563943 88.453955-121.207938a109.568944 109.568944 0 0 1 96.184952 26.934986 114.445942 114.445942 0 0 0-14.339993 18.538991 121.331938 121.331938 0 0 0-10.058995 24.482987 120.126939 120.126939 0 0 0 26.560986 118.87994 121.693938 121.693938 0 0 0 30.135985 24.523988c53.319973 33.590983 124.027937 22.990988 164.513917-24.689988a119.799939 119.799939 0 0 0-5.860997-162.108918 175.987911 175.987911 0 0 0 6.442996-26.599986 142.863927 142.863927 0 0 1 29.423985 180.519908v-1.038999z" fill="#FFFFFF" p-id="2719"></path></svg>