<?xml version="1.0" standalone="no"?><!DOCTYPE svg PUBLIC "-//W3C//DTD SVG 1.1//EN" "http://www.w3.org/Graphics/SVG/1.1/DTD/svg11.dtd"><svg t="1618473544045" class="icon" viewBox="0 0 1024 1024" version="1.1" xmlns="http://www.w3.org/2000/svg" p-id="2166" xmlns:xlink="http://www.w3.org/1999/xlink" width="38" height="38"><defs><style type="text/css"></style></defs><path d="M136.533604 0.00026a49.119975 49.119975 0 0 0-35.839982 15.359992C91.307627 25.600247 85.33463 38.40024 85.33463 51.200234v921.599532a49.119975 49.119975 0 0 0 15.359992 35.839982 50.545974 50.545974 0 0 0 35.839982 15.359992h750.931619a49.119975 49.119975 0 0 0 35.839981-15.359992 50.546974 50.546974 0 0 0 15.359993-35.839982V290.134113L648.533344 0.00026z" fill="#EB734C" p-id="2167"></path><path d="M938.666197 290.133113H699.733318a52.492973 52.492973 0 0 1-51.199974-51.199974V0.00026z" fill="#FCB7A0" p-id="2168"></path><path d="M341.3335 362.000076h196.6079c112.916943 0 169.374914 47.823976 169.374914 144.134927 0 96.975951-57.122971 145.462926-170.699913 145.462926H413.732463v184.652906h-72.399963V362.000076z m72.399963 61.771969v166.053915h118.22994c35.867982 0 61.771969-6.641997 78.37796-19.926989 15.940992-13.283993 24.575988-34.538982 24.575988-63.764968s-8.634996-50.479974-25.239987-62.435968q-24.907987-19.92599-77.712961-19.92699H413.733463z" fill="#FFFFFF" p-id="2169"></path></svg>