<?xml version="1.0" standalone="no"?><!DOCTYPE svg PUBLIC "-//W3C//DTD SVG 1.1//EN" "http://www.w3.org/Graphics/SVG/1.1/DTD/svg11.dtd"><svg t="1618473580523" class="icon" viewBox="0 0 1024 1024" version="1.1" xmlns="http://www.w3.org/2000/svg" p-id="2992" xmlns:xlink="http://www.w3.org/1999/xlink" width="38" height="38"><defs><style type="text/css"></style></defs><path d="M136.533604 0.00026a49.119975 49.119975 0 0 0-35.839982 15.359992C91.307627 25.600247 85.33463 38.40024 85.33463 51.200234v921.599532a49.119975 49.119975 0 0 0 15.359992 35.839982 50.545974 50.545974 0 0 0 35.839982 15.359992h750.931619a49.119975 49.119975 0 0 0 35.839981-15.359992 50.546974 50.546974 0 0 0 15.359993-35.839982V290.134113L648.533344 0.00026z" fill="#F9BD0F" p-id="2993"></path><path d="M938.666197 290.133113H699.733318a52.492973 52.492973 0 0 1-51.199974-51.199974V0.00026z" fill="#FEDF7E" p-id="2994"></path><path d="M419.45346 0.13326h92.159954v78.63196h-92.159954z m-92.159953 78.63196h92.159953v78.61496h-92.159953V78.76422z m92.159953 78.61496h92.159954v78.63196h-92.159954v-78.64896z m-92.159953 78.63196h92.159953v78.61496h-92.159953v-78.59996z m92.159953 78.61496h92.159954v78.63196h-92.159954z m-92.159953 78.63196h92.159953v78.63196h-92.159953z m92.159953 78.63196v78.61496h-92.159953V825.699841c0 21.699989 13.759993 39.29998 30.719985 39.29998h122.879937c16.959991 0 30.719984-17.599991 30.719985-39.29998V471.89102h-92.159954z m61.439969 314.493841H358.013492v-78.63296h122.879937z" fill="#FFFFFF" p-id="2995"></path></svg>