<?xml version="1.0" standalone="no"?><!DOCTYPE svg PUBLIC "-//W3C//DTD SVG 1.1//EN" "http://www.w3.org/Graphics/SVG/1.1/DTD/svg11.dtd"><svg t="1618473586422" class="icon" viewBox="0 0 1024 1024" version="1.1" xmlns="http://www.w3.org/2000/svg" p-id="3128" xmlns:xlink="http://www.w3.org/1999/xlink" width="38" height="38"><defs><style type="text/css"></style></defs><path d="M136.533604 0.00026a49.119975 49.119975 0 0 0-35.839982 15.359992C91.307627 25.600247 85.33463 38.40024 85.33463 51.200234v921.599532a49.119975 49.119975 0 0 0 15.359992 35.839982 50.545974 50.545974 0 0 0 35.839982 15.359992h750.931619a49.119975 49.119975 0 0 0 35.839981-15.359992 50.546974 50.546974 0 0 0 15.359993-35.839982V290.134113L648.533344 0.00026z" fill="#BFC3CB" p-id="3129"></path><path d="M938.666197 290.133113H699.733318a52.492973 52.492973 0 0 1-51.199974-51.199974V0.00026z" fill="#DBDEE5" p-id="3130"></path><path d="M581.687378 605.383953c-23.987988 16.249992-32.499983 47.976976-32.499984 64.613967v12.380993a36.386982 36.386982 0 1 1-72.738963 0v-12.767993c0-37.916981 21.666989-78.54296 49.136975-100.208949 41.785979-33.660983 59.97097-45.267977 59.97097-86.667956s-32.499983-75.059962-72.738963-75.059962c-39.85198 0-72.351963 33.273983-72.738963 75.059962v12.380994a36.386982 36.386982 0 1 1-72.738963 0v-12.380994c0-82.799958 64.999967-149.733924 145.090926-149.733924s145.090926 66.934966 145.090926 149.733924c0.387 48.750975-14.315993 81.250959-75.833961 122.649938M512.818413 864.999821a48.363975 48.363975 0 1 1 48.363975-48.363976A48.380975 48.380975 0 0 1 512.818413 864.999821" fill="#FFFFFF" p-id="3131"></path></svg>