<?xml version="1.0" standalone="no"?><!DOCTYPE svg PUBLIC "-//W3C//DTD SVG 1.1//EN" "http://www.w3.org/Graphics/SVG/1.1/DTD/svg11.dtd"><svg t="1618473599618" class="icon" viewBox="0 0 1024 1024" version="1.1" xmlns="http://www.w3.org/2000/svg" p-id="3402" xmlns:xlink="http://www.w3.org/1999/xlink" width="38" height="38"><defs><style type="text/css"></style></defs><path d="M136.533604 0.00026a49.119975 49.119975 0 0 0-35.839982 15.359992C91.307627 25.600247 85.33463 38.40024 85.33463 51.200234v921.599532a49.119975 49.119975 0 0 0 15.359992 35.839982 50.545974 50.545974 0 0 0 35.839982 15.359992h750.931619a49.119975 49.119975 0 0 0 35.839981-15.359992 50.546974 50.546974 0 0 0 15.359993-35.839982V290.134113L648.533344 0.00026z" fill="#FF8B25" p-id="3403"></path><path d="M938.666197 290.133113H699.733318a52.492973 52.492973 0 0 1-51.199974-51.199974V0.00026z" fill="#FFDDAB" p-id="3404"></path><path d="M772.570281 624.874943H743.143296c0-127.432935-103.888947-231.320883-231.320883-231.320883S280.499531 497.442007 280.499531 624.874943h-29.429985c0-143.913927 116.837941-260.751868 260.751867-260.751868 143.618927 0 260.748868 116.837941 260.748868 260.751868z" fill="#FFFFFF" p-id="3405"></path><path d="M296.981523 364.123075h429.679781v29.426985h-429.679781z m-55.328972 231.320883h47.970975v47.970975h-47.970975z m492.07275 0h47.970975v47.970975h-47.970975z" fill="#FFFFFF" p-id="3406"></path><path d="M487.689426 355.00008h47.970975v47.970975h-47.970975z m167.457915 488.831751h-288.709854l27.957986-105.655946h233.086882l27.664986 105.655946zM404.402468 814.409846h212.484892l-12.360994-46.793976H416.762462l-12.360994 46.793976z" fill="#FFFFFF" p-id="3407"></path><path d="M606.002366 767.61187H419.41146l-40.907979-86.818956 132.435933-280.469857 132.141933 280.175857z m-168.051915-29.429985h148.624924l24.426988-57.093971-100.062949-211.899892-99.767949 211.599892z" fill="#FFFFFF" p-id="3408"></path><path d="M494.833422 684.649912a33.844983 33.844983 0 1 0-13.869993-45.809976 33.844983 33.844983 0 0 0 13.869993 45.809976z" fill="#FFFFFF" p-id="3409"></path></svg>