<?xml version="1.0" standalone="no"?><!DOCTYPE svg PUBLIC "-//W3C//DTD SVG 1.1//EN" "http://www.w3.org/Graphics/SVG/1.1/DTD/svg11.dtd"><svg t="1618818767388" class="icon" viewBox="0 0 1024 1024" version="1.1" xmlns="http://www.w3.org/2000/svg" p-id="6582" xmlns:xlink="http://www.w3.org/1999/xlink" width="38" height="38"><defs><style type="text/css"></style></defs><path d="M693.4528 996.5568H194.56c-84.7872 0-153.6-68.8128-153.6-153.6V304.5376c0-84.7872 68.8128-153.6 153.6-153.6h498.8928c84.7872 0 153.6 68.8128 153.6 153.6v538.4192c0 84.5824-68.8128 153.6-153.6 153.6zM194.56 212.3776c-50.7904 0-92.16 41.3696-92.16 92.16v538.4192c0 50.7904 41.3696 92.16 92.16 92.16h498.8928c50.7904 0 92.16-41.3696 92.16-92.16V304.5376c0-50.7904-41.3696-92.16-92.16-92.16H194.56z" fill="#2C2C2C" p-id="6583"></path><path d="M983.04 693.0432h-61.44V246.9888c0-87.04-70.8608-158.1056-158.1056-158.1056H323.7888v-61.44h439.7056C884.5312 27.4432 983.04 125.952 983.04 246.9888v446.0544z" fill="#2C2C2C" p-id="6584"></path><path d="M621.9776 604.3648H266.0352c-16.9984 0-30.72-13.7216-30.72-30.72s13.7216-30.72 30.72-30.72h355.9424c16.9984 0 30.72 13.7216 30.72 30.72s-13.7216 30.72-30.72 30.72z" fill="#26BEC9" p-id="6585"></path><path d="M444.0064 778.0352c-16.9984 0-30.72-13.7216-30.72-30.72V400.1792c0-16.9984 13.7216-30.72 30.72-30.72s30.72 13.7216 30.72 30.72v347.136c0 16.9984-13.7216 30.72-30.72 30.72z" fill="#26BEC9" p-id="6586"></path></svg>