<?xml version="1.0" standalone="no"?><!DOCTYPE svg PUBLIC "-//W3C//DTD SVG 1.1//EN" "http://www.w3.org/Graphics/SVG/1.1/DTD/svg11.dtd"><svg t="1618818735055" class="icon" viewBox="0 0 1024 1024" version="1.1" xmlns="http://www.w3.org/2000/svg" p-id="4932" xmlns:xlink="http://www.w3.org/1999/xlink" width="38" height="38"><defs><style type="text/css"></style></defs><path d="M658.6368 238.592H364.544c-39.5264 0-71.68-32.1536-71.68-71.68V89.2928c0-16.9984 13.7216-30.72 30.72-30.72s30.72 13.7216 30.72 30.72v77.6192c0 5.7344 4.5056 10.24 10.24 10.24h293.888c5.7344 0 10.24-4.5056 10.24-10.24V89.2928c0-16.9984 13.7216-30.72 30.72-30.72s30.72 13.7216 30.72 30.72v77.6192c0.2048 39.5264-31.9488 71.68-71.4752 71.68z" fill="#2C2C2C" p-id="4933"></path><path d="M665.1904 442.9824h-307.2c-16.9984 0-30.72-13.7216-30.72-30.72s13.7216-30.72 30.72-30.72h307.2c16.9984 0 30.72 13.7216 30.72 30.72s-13.7216 30.72-30.72 30.72zM665.1904 606.8224h-307.2c-16.9984 0-30.72-13.7216-30.72-30.72s13.7216-30.72 30.72-30.72h307.2c16.9984 0 30.72 13.7216 30.72 30.72s-13.7216 30.72-30.72 30.72z" fill="#26BEC9" p-id="4934"></path><path d="M779.6736 998.4H233.8816c-82.5344 0-149.504-67.1744-149.504-149.504V175.104c0-82.5344 67.1744-149.504 149.504-149.504h556.032c82.5344 0 149.504 67.1744 149.504 149.504v280.1664l-6.3488 391.9872c-1.024 83.3536-70.0416 151.1424-153.3952 151.1424zM233.8816 87.04c-48.5376 0-88.064 39.5264-88.064 88.064v673.5872c0 48.5376 39.5264 88.064 88.064 88.064h545.792c49.9712 0 91.3408-40.7552 92.16-90.7264l6.3488-391.7824V175.104c0-48.5376-39.5264-88.064-88.064-88.064H233.8816z m675.0208 367.8208z" fill="#2C2C2C" p-id="4935"></path></svg>