<?xml version="1.0" standalone="no"?><!DOCTYPE svg PUBLIC "-//W3C//DTD SVG 1.1//EN" "http://www.w3.org/Graphics/SVG/1.1/DTD/svg11.dtd"><svg t="1618818711408" class="icon" viewBox="0 0 1024 1024" version="1.1" xmlns="http://www.w3.org/2000/svg" p-id="3829" xmlns:xlink="http://www.w3.org/1999/xlink" width="38" height="38"><defs><style type="text/css"></style></defs><path d="M512 99.1232c227.7376 0 412.8768 185.1392 412.8768 412.8768S739.7376 924.8768 512 924.8768 99.1232 739.7376 99.1232 512 284.2624 99.1232 512 99.1232m0-61.44C250.0608 37.6832 37.6832 250.0608 37.6832 512S250.0608 986.3168 512 986.3168 986.3168 773.9392 986.3168 512 773.9392 37.6832 512 37.6832z" fill="#2C2C2C" p-id="3830"></path><path d="M600.8832 736.4608v18.2272h-171.8272v-18.2272l38.912-3.4816c0.6144-34.6112 1.2288-85.1968 1.2288-118.1696v-47.104c0-37.6832-0.6144-59.392-1.8432-89.2928l-44.032-4.7104v-14.1312l134.7584-35.2256 8.192 5.9392-2.2528 94.208v90.5216c0 32.9728 0.6144 84.1728 1.2288 118.1696l35.6352 3.2768z m-137.216-418.816c0-28.2624 22.9376-48.3328 50.5856-48.3328 28.2624 0 51.2 20.0704 51.2 48.3328 0 27.648-22.9376 47.7184-51.2 47.7184-27.648 0-50.5856-20.0704-50.5856-47.7184z" fill="#26BEC9" p-id="3831"></path></svg>