<?xml version="1.0" standalone="no"?><!DOCTYPE svg PUBLIC "-//W3C//DTD SVG 1.1//EN" "http://www.w3.org/Graphics/SVG/1.1/DTD/svg11.dtd"><svg t="1618818713598" class="icon" viewBox="0 0 1024 1024" version="1.1" xmlns="http://www.w3.org/2000/svg" p-id="3966" xmlns:xlink="http://www.w3.org/1999/xlink" width="38" height="38"><defs><style type="text/css"></style></defs><path d="M761.4464 1000.0384H287.1296C182.6816 1000.0384 53.4528 954.368 30.3104 737.28l-0.2048-2.6624C16.384 523.6736 161.5872 380.7232 248.0128 314.9824c-34.6112-46.8992-61.44-101.376-46.2848-161.5872 8.192-36.2496 31.9488-68.1984 65.1264-86.6304 36.6592-20.0704 84.5824-23.7568 139.0592-11.0592 25.8048-15.9744 55.0912-26.8288 105.2672-31.1296 39.1168-2.6624 77.2096 7.168 109.3632 27.8528 28.2624-10.4448 64.9216-17.6128 101.7856-7.5776 37.2736 10.6496 67.9936 36.6592 83.968 71.68 37.2736 74.9568 2.8672 148.6848-23.7568 190.8736 81.3056 58.9824 217.088 190.8736 212.1728 412.2624-6.144 277.0944-231.0144 280.3712-233.2672 280.3712zM91.3408 729.4976l0.2048 1.024c14.9504 139.8784 78.848 207.872 195.7888 207.872h474.3168c6.7584 0 167.1168-4.5056 171.8272-220.3648 4.9152-216.064-145.2032-335.4624-209.92-376.832l-27.4432-17.408 19.0464-26.4192c46.2848-63.8976 57.344-111.616 36.0448-154.4192-9.0112-19.456-25.1904-33.3824-45.056-38.912-26.8288-7.5776-56.5248 2.048-76.5952 11.0592L612.352 122.88l-14.7456-11.8784a116.20352 116.20352 0 0 0-81.3056-25.3952c-48.9472 4.3008-68.4032 15.36-86.8352 28.2624l-11.8784 8.3968-14.1312-3.8912c-31.1296-8.6016-74.9568-15.36-106.9056 2.048-17.6128 9.8304-30.5152 27.0336-35.0208 47.104-11.6736 45.8752 20.8896 93.5936 54.0672 134.144L336.896 327.68l-27.648 18.8416c-69.8368 47.7184-230.6048 180.6336-217.9072 382.976z" fill="#2C2C2C" p-id="3967"></path><path d="M530.432 544.3584c-9.4208 0-18.6368-4.5056-24.3712-12.0832l-106.496-139.0592a30.65856 30.65856 0 1 1 48.7424-37.2736l77.824 101.5808 53.4528-97.6896c8.192-14.9504 26.8288-20.48 41.7792-12.288s20.2752 26.8288 12.288 41.7792l-75.9808 139.0592c-4.9152 9.216-14.336 15.1552-24.576 15.9744h-2.6624z" fill="#26BEC9" p-id="3968"></path><path d="M682.5984 559.9232H386.048c-16.9984 0-30.72-13.7216-30.72-30.72s13.7216-30.72 30.72-30.72h296.7552c16.9984 0 30.72 13.7216 30.72 30.72s-13.9264 30.72-30.9248 30.72zM682.5984 668.0576H386.048c-16.9984 0-30.72-13.7216-30.72-30.72s13.7216-30.72 30.72-30.72h296.7552c16.9984 0 30.72 13.7216 30.72 30.72s-13.9264 30.72-30.9248 30.72z" fill="#26BEC9" p-id="3969"></path><path d="M530.432 807.1168c-16.9984 0-30.72-13.7216-30.72-30.72V513.6384c0-16.9984 13.7216-30.72 30.72-30.72s30.72 13.7216 30.72 30.72v262.7584c0 16.9984-13.7216 30.72-30.72 30.72z" fill="#26BEC9" p-id="3970"></path></svg>