<?xml version="1.0" standalone="no"?><!DOCTYPE svg PUBLIC "-//W3C//DTD SVG 1.1//EN" "http://www.w3.org/Graphics/SVG/1.1/DTD/svg11.dtd"><svg t="1618818718708" class="icon" viewBox="0 0 1024 1024" version="1.1" xmlns="http://www.w3.org/2000/svg" p-id="4241" xmlns:xlink="http://www.w3.org/1999/xlink" width="38" height="38"><defs><style type="text/css"></style></defs><path d="M194.3552 700.2112c-7.3728 0-14.5408-0.8192-21.9136-2.8672-96.256-24.9856-160.9728-98.304-160.9728-182.272 0-83.968 64.7168-157.2864 160.9728-182.272 25.3952-6.7584 52.8384-1.2288 73.1136 14.336 17.2032 13.312 27.0336 32.3584 27.0336 52.6336v230.8096c0 20.2752-9.8304 39.3216-27.0336 52.6336-14.5408 11.0592-32.5632 16.9984-51.2 16.9984z m0-308.8384c-2.048 0-4.096 0.2048-6.3488 0.8192-68.8128 17.8176-114.8928 67.3792-114.8928 122.88s46.2848 104.8576 114.8928 122.88c8.6016 2.2528 15.9744-0.6144 19.8656-3.4816 2.048-1.6384 3.072-3.2768 3.072-4.096V399.7696c0-0.8192-1.024-2.4576-3.072-3.8912-2.6624-2.4576-7.5776-4.5056-13.5168-4.5056zM829.6448 700.2112c-18.432 0-36.6592-5.9392-51.2-17.2032-17.2032-13.312-27.0336-32.3584-27.0336-52.6336V399.7696c0-20.2752 9.8304-39.3216 27.0336-52.6336a84.992 84.992 0 0 1 73.1136-14.336c96.256 24.9856 160.9728 98.304 160.9728 182.272 0 83.968-64.7168 157.2864-160.768 182.272-7.5776 1.8432-14.9504 2.8672-22.1184 2.8672z m0-308.8384c-5.9392 0-10.8544 2.048-13.7216 4.3008-2.048 1.6384-3.072 3.2768-3.072 3.8912v230.8096c0 0.8192 1.024 2.4576 3.072 4.096 3.8912 3.072 11.4688 5.7344 20.0704 3.4816 68.8128-18.0224 114.8928-67.3792 114.8928-122.88s-46.08-105.0624-114.8928-122.88c-2.2528-0.6144-4.3008-0.8192-6.3488-0.8192z" fill="#2C2C2C" p-id="4242"></path><path d="M194.56 389.7344l-60.0064-13.312C172.032 206.2336 327.4752 82.7392 503.808 82.7392c167.7312 0 317.0304 111.2064 363.3152 270.5408l-58.9824 17.2032c-38.7072-133.12-163.84-226.0992-304.3328-226.0992-147.8656-0.2048-277.9136 103.0144-309.248 245.3504zM605.3888 893.3376h-0.6144l0.4096-61.44h0.6144c31.5392 0 117.9648-10.4448 150.9376-58.5728 42.1888-61.6448 41.3696-101.9904 41.3696-102.4l61.44-3.4816c0.4096 5.9392 2.2528 61.2352-52.0192 140.6976-57.1392 83.3536-190.0544 85.1968-202.1376 85.1968z" fill="#2C2C2C" p-id="4243"></path><path d="M573.8496 910.5408h-106.2912c-26.2144 0-47.3088-21.0944-47.3088-47.3088v-1.024c0-26.2144 21.0944-47.3088 47.3088-47.3088h106.2912c26.2144 0 47.3088 21.0944 47.3088 47.3088v1.024a47.2064 47.2064 0 0 1-47.3088 47.3088z" fill="#26BEC9" p-id="4244"></path><path d="M573.8496 941.2608h-106.2912c-43.008 0-78.0288-35.0208-78.0288-78.0288 0-44.2368 35.0208-79.2576 78.0288-79.2576h106.2912c43.008 0 78.0288 35.0208 78.0288 78.0288 0.2048 44.2368-34.816 79.2576-78.0288 79.2576z m-106.2912-95.8464c-9.216 0-16.5888 7.3728-16.5888 16.5888 0 10.24 7.3728 17.8176 16.5888 17.8176h106.2912c9.216 0 16.5888-7.3728 16.5888-16.5888 0-10.24-7.3728-17.8176-16.5888-17.8176h-106.2912z" fill="#2C2C2C" p-id="4245"></path><path d="M507.2896 700.0064c-72.0896 0-128.6144-40.1408-128.6144-91.5456 0-16.9984 13.7216-30.72 30.72-30.72s30.72 13.7216 30.72 30.72c0 10.6496 25.3952 30.1056 67.1744 30.1056 41.5744 0 67.1744-19.456 67.1744-30.1056 0-16.9984 13.7216-30.72 30.72-30.72s30.72 13.7216 30.72 30.72c-0.2048 51.4048-56.5248 91.5456-128.6144 91.5456z" fill="#26BEC9" p-id="4246"></path></svg>