<?xml version="1.0" standalone="no"?><!DOCTYPE svg PUBLIC "-//W3C//DTD SVG 1.1//EN" "http://www.w3.org/Graphics/SVG/1.1/DTD/svg11.dtd"><svg t="1618818731108" class="icon" viewBox="0 0 1024 1024" version="1.1" xmlns="http://www.w3.org/2000/svg" p-id="4791" xmlns:xlink="http://www.w3.org/1999/xlink" width="38" height="38"><defs><style type="text/css"></style></defs><path d="M800.5632 986.7264H223.4368c-84.7872 0-153.6-67.7888-153.6-151.3472V270.336c0-83.3536 68.8128-151.1424 153.6-151.1424h43.2128c16.9984 0 30.72 13.7216 30.72 30.72s-13.7216 30.72-30.72 30.72h-43.2128c-50.7904 0-92.16 40.3456-92.16 89.7024v565.248c0 49.5616 41.3696 89.9072 92.16 89.9072h577.1264c50.7904 0 92.16-40.3456 92.16-89.9072V270.336c0-49.5616-41.3696-89.7024-92.16-89.7024H743.424c-16.9984 0-30.72-13.7216-30.72-30.72s13.7216-30.72 30.72-30.72h57.1392c84.7872 0 153.6 67.7888 153.6 151.1424v565.248c0 83.3536-68.8128 151.1424-153.6 151.1424z" fill="#2C2C2C" p-id="4792"></path><path d="M696.7296 262.5536H327.2704c-39.5264 0-71.68-32.1536-71.68-71.68v-81.92c0-39.5264 32.1536-71.68 71.68-71.68h369.2544c39.5264 0 71.68 32.1536 71.68 71.68v81.92c0.2048 39.5264-31.9488 71.68-71.4752 71.68z m-369.4592-163.84c-5.7344 0-10.24 4.5056-10.24 10.24v81.92c0 5.7344 4.5056 10.24 10.24 10.24h369.2544c5.7344 0 10.24-4.5056 10.24-10.24v-81.92c0-5.7344-4.5056-10.24-10.24-10.24H327.2704z" fill="#2C2C2C" p-id="4793"></path><path d="M378.6752 477.3888h-70.4512c-11.264 0-20.48-9.216-20.48-20.48v-70.4512c0-11.264 9.216-20.48 20.48-20.48h70.4512c11.264 0 20.48 9.216 20.48 20.48v70.4512c0 11.264-9.216 20.48-20.48 20.48z" fill="#26BEC9" p-id="4794"></path><path d="M711.4752 454.656H501.3504c-16.9984 0-30.72-13.7216-30.72-30.72s13.7216-30.72 30.72-30.72h210.1248c16.9984 0 30.72 13.7216 30.72 30.72s-13.7216 30.72-30.72 30.72z" fill="#2C2C2C" p-id="4795"></path><path d="M378.6752 651.264h-70.4512c-11.264 0-20.48-9.216-20.48-20.48v-70.4512c0-11.264 9.216-20.48 20.48-20.48h70.4512c11.264 0 20.48 9.216 20.48 20.48v70.4512c0 11.264-9.216 20.48-20.48 20.48z" fill="#26BEC9" p-id="4796"></path><path d="M711.4752 626.2784H501.3504c-16.9984 0-30.72-13.7216-30.72-30.72s13.7216-30.72 30.72-30.72h210.1248c16.9984 0 30.72 13.7216 30.72 30.72s-13.7216 30.72-30.72 30.72z" fill="#2C2C2C" p-id="4797"></path><path d="M378.6752 823.296h-70.4512c-11.264 0-20.48-9.216-20.48-20.48v-70.4512c0-11.264 9.216-20.48 20.48-20.48h70.4512c11.264 0 20.48 9.216 20.48 20.48v70.4512c0 11.264-9.216 20.48-20.48 20.48z" fill="#26BEC9" p-id="4798"></path><path d="M711.4752 798.3104H501.3504c-16.9984 0-30.72-13.7216-30.72-30.72s13.7216-30.72 30.72-30.72h210.1248c16.9984 0 30.72 13.7216 30.72 30.72s-13.7216 30.72-30.72 30.72z" fill="#2C2C2C" p-id="4799"></path></svg>