<?xml version="1.0" standalone="no"?><!DOCTYPE svg PUBLIC "-//W3C//DTD SVG 1.1//EN" "http://www.w3.org/Graphics/SVG/1.1/DTD/svg11.dtd"><svg t="1618818722161" class="icon" viewBox="0 0 1024 1024" version="1.1" xmlns="http://www.w3.org/2000/svg" p-id="4381" xmlns:xlink="http://www.w3.org/1999/xlink" width="38" height="38"><defs><style type="text/css"></style></defs><path d="M865.28 977.92H158.72a112.8448 112.8448 0 0 1-112.64-112.64V158.72c0-62.0544 50.5856-112.64 112.64-112.64h706.56c62.0544 0 112.64 50.5856 112.64 112.64v706.56c0 62.0544-50.5856 112.64-112.64 112.64zM158.72 107.52a51.2 51.2 0 0 0-51.2 51.2v706.56a51.2 51.2 0 0 0 51.2 51.2h706.56a51.2 51.2 0 0 0 51.2-51.2V158.72a51.2 51.2 0 0 0-51.2-51.2H158.72z" fill="#2C2C2C" p-id="4382"></path><path d="M512 572.2112c-97.8944 0-177.5616-79.6672-177.5616-177.5616 0-97.8944 79.6672-177.5616 177.5616-177.5616s177.5616 79.6672 177.5616 177.5616c0 98.0992-79.6672 177.5616-177.5616 177.5616z m0-293.4784c-63.8976 0-116.1216 52.0192-116.1216 116.1216 0 63.8976 52.0192 116.1216 116.1216 116.1216s116.1216-52.0192 116.1216-116.1216-52.224-116.1216-116.1216-116.1216z" fill="#26BEC9" p-id="4383"></path><path d="M267.8784 780.6976c-10.8544 0-21.2992-5.7344-26.8288-15.9744-8.192-14.9504-2.8672-33.5872 12.0832-41.7792 77.824-42.8032 168.7552-65.536 263.168-65.536 90.5216 0 178.3808 21.0944 254.1568 60.8256 14.9504 7.7824 20.8896 26.4192 12.9024 41.3696-7.7824 14.9504-26.624 20.8896-41.3696 12.9024-66.9696-35.0208-144.9984-53.6576-225.6896-53.6576-83.968 0-164.6592 20.0704-233.472 57.9584-4.7104 2.8672-9.8304 3.8912-14.9504 3.8912z" fill="#2C2C2C" p-id="4384"></path></svg>