<?xml version="1.0" standalone="no"?><!DOCTYPE svg PUBLIC "-//W3C//DTD SVG 1.1//EN" "http://www.w3.org/Graphics/SVG/1.1/DTD/svg11.dtd"><svg t="1618818672392" class="icon" viewBox="0 0 1024 1024" version="1.1" xmlns="http://www.w3.org/2000/svg" p-id="1623" xmlns:xlink="http://www.w3.org/1999/xlink" width="38" height="38"><defs><style type="text/css"></style></defs><path d="M819.2 106.821818c28.858182 0 52.363636 20.945455 52.363636 46.545455v697.483636c0 25.6-23.505455 46.545455-52.829091 46.545455l-593.454545-3.956364c-28.625455-0.232727-51.898182-21.178182-51.898182-46.545455V153.367273c0-25.6 23.505455-46.545455 52.363637-46.545455h593.454545m0-46.545454H225.745455c-54.690909 0-98.909091 41.658182-98.909091 93.090909v693.527272c0 51.2 43.752727 92.625455 98.210909 93.09091l593.454545 3.956363h0.698182c54.458182 0 98.909091-41.658182 98.909091-93.090909V153.367273c0-51.432727-44.450909-93.090909-98.909091-93.090909z" p-id="1624"></path><path d="M671.418182 246.458182h-297.890909c-33.28 0-60.509091-31.418182-60.509091-69.818182v-93.090909h46.545454v93.090909c0 13.265455 7.447273 23.272727 13.963637 23.272727h297.890909c6.516364 0 13.963636-10.007273 13.963636-23.272727v-93.090909h46.545455v93.090909c0 38.4-27.229091 69.818182-60.509091 69.818182zM708.654545 455.912727h-372.363636c-12.8 0-23.272727-10.472727-23.272727-23.272727s10.472727-23.272727 23.272727-23.272727h372.363636c12.8 0 23.272727 10.472727 23.272728 23.272727s-10.472727 23.272727-23.272728 23.272727zM708.654545 618.821818h-372.363636c-12.8 0-23.272727-10.472727-23.272727-23.272727s10.472727-23.272727 23.272727-23.272727h372.363636c12.8 0 23.272727 10.472727 23.272728 23.272727s-10.472727 23.272727-23.272728 23.272727z" p-id="1625"></path></svg>