<?xml version="1.0" standalone="no"?><!DOCTYPE svg PUBLIC "-//W3C//DTD SVG 1.1//EN" "http://www.w3.org/Graphics/SVG/1.1/DTD/svg11.dtd"><svg t="1618818771905" class="icon" viewBox="0 0 1024 1024" version="1.1" xmlns="http://www.w3.org/2000/svg" p-id="6859" xmlns:xlink="http://www.w3.org/1999/xlink" width="38" height="38"><defs><style type="text/css"></style></defs><path d="M544.5632 1008.8448H204.8c-87.2448 0-158.1056-68.4032-158.1056-152.3712V333.0048c0-38.2976 19.8656-73.3184 53.248-94.0032l320.7168-199.0656a162.54976 162.54976 0 0 1 163.4304-4.5056l335.4624 183.0912c36.2496 19.8656 58.7776 57.1392 58.7776 97.28v216.8832c0 16.9984-13.7216 30.72-30.72 30.72s-30.72-13.7216-30.72-30.72V315.8016c0-17.8176-10.24-34.4064-26.8288-43.4176L554.8032 89.2928a101.5808 101.5808 0 0 0-101.7856 2.6624L132.3008 291.0208c-15.1552 9.4208-24.1664 24.9856-24.1664 41.7792v523.4688c0 50.176 43.4176 90.9312 96.6656 90.9312h339.5584c16.9984 0 30.72 13.7216 30.72 30.72s-13.5168 30.9248-30.5152 30.9248z" fill="#2C2C2C" p-id="6860"></path><path d="M803.2256 1001.6768l-170.1888-121.4464c-13.7216-9.8304-16.9984-29.0816-7.168-42.8032 9.8304-13.7216 29.0816-16.9984 42.8032-7.168l116.5312 83.3536 146.6368-238.1824c8.8064-14.5408 27.8528-19.0464 42.1888-10.0352 14.5408 8.8064 19.0464 27.8528 10.0352 42.1888l-180.8384 294.0928z" fill="#26BEC9" p-id="6861"></path><path d="M353.8944 885.9648h-112.64a51.2 51.2 0 0 1-51.2-51.2v-112.64a51.2 51.2 0 0 1 51.2-51.2h112.64a51.2 51.2 0 0 1 51.2 51.2v112.64a51.2 51.2 0 0 1-51.2 51.2z m-102.4-61.44h92.16v-92.16h-92.16v92.16zM353.8944 614.6048h-112.64a51.2 51.2 0 0 1-51.2-51.2v-112.64a51.2 51.2 0 0 1 51.2-51.2h112.64a51.2 51.2 0 0 1 51.2 51.2v112.64a51.2 51.2 0 0 1-51.2 51.2z m-102.4-61.44h92.16v-92.16h-92.16v92.16z" fill="#2C2C2C" p-id="6862"></path></svg>