<?xml version="1.0" standalone="no"?><!DOCTYPE svg PUBLIC "-//W3C//DTD SVG 1.1//EN" "http://www.w3.org/Graphics/SVG/1.1/DTD/svg11.dtd"><svg t="1618818696045" class="icon" viewBox="0 0 1024 1024" version="1.1" xmlns="http://www.w3.org/2000/svg" p-id="3006" xmlns:xlink="http://www.w3.org/1999/xlink" width="38" height="38"><defs><style type="text/css"></style></defs><path d="M532.6848 1008.64H192.9216c-87.2448 0-158.1056-68.4032-158.1056-152.3712V332.8c0-38.2976 19.8656-73.3184 53.248-94.0032l320.7168-199.0656a162.54976 162.54976 0 0 1 163.4304-4.5056l335.6672 183.0912c36.2496 19.8656 58.7776 57.1392 58.7776 97.28V450.56c0 16.9984-13.7216 30.72-30.72 30.72s-30.72-13.7216-30.72-30.72v-134.9632c0-17.8176-10.24-34.4064-26.8288-43.4176L542.9248 89.088a101.5808 101.5808 0 0 0-101.7856 2.6624L120.4224 291.0208c-15.1552 9.4208-24.1664 24.9856-24.1664 41.7792v523.4688c0 50.176 43.4176 90.9312 96.6656 90.9312H532.48c16.9984 0 30.72 13.7216 30.72 30.72s-13.5168 30.72-30.5152 30.72z" fill="#2C2C2C" p-id="3007"></path><path d="M927.744 1008.64H698.368c-33.792 0-61.2352-27.4432-61.2352-61.2352v-38.2976c0-34.2016 12.4928-66.7648 35.4304-92.16l33.9968-37.6832-33.9968-37.6832a138.69056 138.69056 0 0 1-35.4304-88.4736v-41.984c0-33.792 27.4432-61.2352 61.2352-61.2352h229.376c33.792 0 61.2352 27.4432 61.2352 61.2352v38.2976c0 33.9968-12.4928 66.7648-35.4304 92.16l-33.9968 37.6832 33.9968 37.6832a138.69056 138.69056 0 0 1 35.4304 88.4736v41.984c0 33.792-27.4432 61.2352-61.2352 61.2352z m-229.1712-397.312l0.2048 40.5504c0.4096 17.6128 7.3728 35.0208 19.6608 48.5376l71.0656 78.848-70.8608 78.848c-12.6976 14.1312-19.6608 32.1536-19.6608 50.9952v38.2976l229.1712-0.2048-0.2048-40.5504c-0.4096-17.6128-7.3728-35.0208-19.6608-48.5376l-70.8608-78.6432 71.0656-78.848c12.6976-14.1312 19.6608-32.1536 19.6608-50.9952v-38.0928H698.5728z m229.1712 0z" fill="#2C2C2C" p-id="3008"></path><path d="M889.6512 882.8928v26.4192c0 8.3968-6.7584 15.36-15.36 15.36h-122.2656c-8.3968 0-15.36-6.7584-15.36-15.36v-26.4192l18.8416-21.9136h115.0976l19.0464 21.9136z" fill="#26BEC9" p-id="3009"></path><path d="M335.6672 862.4128h-112.64a51.2 51.2 0 0 1-51.2-51.2v-112.64a51.2 51.2 0 0 1 51.2-51.2h112.64a51.2 51.2 0 0 1 51.2 51.2v112.64c0 28.0576-23.1424 51.2-51.2 51.2z m-102.4-61.44h92.16v-92.16h-92.16v92.16z" fill="#2C2C2C" p-id="3010"></path></svg>