<?xml version="1.0" standalone="no"?><!DOCTYPE svg PUBLIC "-//W3C//DTD SVG 1.1//EN" "http://www.w3.org/Graphics/SVG/1.1/DTD/svg11.dtd"><svg t="1618818688139" class="icon" viewBox="0 0 1024 1024" version="1.1" xmlns="http://www.w3.org/2000/svg" p-id="2453" xmlns:xlink="http://www.w3.org/1999/xlink" width="38" height="38"><defs><style type="text/css"></style></defs><path d="M543.744 1008.64H204.1856c-87.2448 0-158.1056-68.4032-158.1056-152.3712V332.8c0-38.2976 19.8656-73.3184 53.248-94.0032l320.7168-199.0656a162.54976 162.54976 0 0 1 163.4304-4.5056l335.6672 183.0912c36.2496 19.8656 58.7776 57.1392 58.7776 97.28V491.52c0 16.9984-13.7216 30.72-30.72 30.72s-30.72-13.7216-30.72-30.72v-175.9232c0-17.8176-10.24-34.4064-26.8288-43.4176L554.1888 89.088a101.5808 101.5808 0 0 0-101.7856 2.6624L131.6864 291.0208c-15.1552 9.4208-24.1664 24.9856-24.1664 41.7792v523.4688c0 50.176 43.4176 90.9312 96.6656 90.9312h339.5584c16.9984 0 30.72 13.7216 30.72 30.72s-13.7216 30.72-30.72 30.72z" fill="#2C2C2C" p-id="2454"></path><path d="M701.44 908.4928c-107.3152 0-194.56-87.2448-194.56-194.56s87.2448-194.56 194.56-194.56 194.56 87.2448 194.56 194.56-87.2448 194.56-194.56 194.56z m0-327.68c-73.3184 0-133.12 59.8016-133.12 133.12s59.8016 133.12 133.12 133.12 133.12-59.8016 133.12-133.12-59.8016-133.12-133.12-133.12z" fill="#26BEC9" p-id="2455"></path><path d="M947.2 990.4128c-7.7824 0-15.7696-3.072-21.7088-9.0112l-122.88-122.88a30.5152 30.5152 0 0 1 0-43.4176 30.5152 30.5152 0 0 1 43.4176 0l122.88 122.88c12.0832 12.0832 12.0832 31.5392 0 43.4176-5.9392 5.9392-13.9264 9.0112-21.7088 9.0112z" fill="#26BEC9" p-id="2456"></path><path d="M354.7136 862.4128h-112.64a51.2 51.2 0 0 1-51.2-51.2v-112.64a51.2 51.2 0 0 1 51.2-51.2h112.64a51.2 51.2 0 0 1 51.2 51.2v112.64c0 28.0576-22.9376 51.2-51.2 51.2z m-102.4-61.44h92.16v-92.16h-92.16v92.16z" fill="#2C2C2C" p-id="2457"></path></svg>