<?xml version="1.0" standalone="no"?><!DOCTYPE svg PUBLIC "-//W3C//DTD SVG 1.1//EN" "http://www.w3.org/Graphics/SVG/1.1/DTD/svg11.dtd"><svg t="1618818709372" class="icon" viewBox="0 0 1024 1024" version="1.1" xmlns="http://www.w3.org/2000/svg" p-id="3691" xmlns:xlink="http://www.w3.org/1999/xlink" width="38" height="38"><defs><style type="text/css"></style></defs><path d="M453.8368 937.5744H180.224c-84.7872 0-153.6-68.8128-153.6-153.6V282.8288c0-84.7872 68.8128-153.6 153.6-153.6h615.6288c84.7872 0 153.6 68.8128 153.6 153.6v139.0592H88.064v362.0864c0 50.7904 41.3696 92.16 92.16 92.16h273.6128c16.9984 0 30.72 13.7216 30.72 30.72s-13.7216 30.72-30.72 30.72zM88.064 360.448h799.9488v-77.6192c0-50.7904-41.3696-92.16-92.16-92.16H180.224c-50.7904 0-92.16 41.3696-92.16 92.16v77.6192z" fill="#2C2C2C" p-id="3692"></path><path d="M330.5472 290.816c-16.9984 0-30.72-13.7216-30.72-30.72V76.5952c0-16.9984 13.7216-30.72 30.72-30.72s30.72 13.7216 30.72 30.72v183.5008c0 16.9984-13.7216 30.72-30.72 30.72zM656.1792 290.816c-16.9984 0-30.72-13.7216-30.72-30.72V76.5952c0-16.9984 13.7216-30.72 30.72-30.72s30.72 13.7216 30.72 30.72v183.5008c0 16.9984-13.7216 30.72-30.72 30.72z" fill="#2C2C2C" p-id="3693"></path><path d="M411.648 600.8832H200.9088c-16.9984 0-30.72-13.7216-30.72-30.72s13.7216-30.72 30.72-30.72H411.648c16.9984 0 30.72 13.7216 30.72 30.72s-13.7216 30.72-30.72 30.72zM411.648 753.664H200.9088c-16.9984 0-30.72-13.7216-30.72-30.72s13.7216-30.72 30.72-30.72H411.648c16.9984 0 30.72 13.7216 30.72 30.72s-13.7216 30.72-30.72 30.72z" fill="#26BEC9" p-id="3694"></path><path d="M753.664 552.3456c100.352 0 182.0672 81.7152 182.0672 182.0672s-81.7152 182.0672-182.0672 182.0672-182.0672-81.7152-182.0672-182.0672 81.7152-182.0672 182.0672-182.0672m0-61.44c-134.5536 0-243.5072 109.1584-243.5072 243.5072 0 134.5536 109.1584 243.5072 243.5072 243.5072s243.712-108.9536 243.712-243.5072c0-134.3488-109.1584-243.5072-243.712-243.5072z" fill="#2C2C2C" p-id="3695"></path><path d="M876.544 782.7456h-122.88c-16.9984 0-30.72-13.7216-30.72-30.72v-121.0368c0-16.9984 13.7216-30.72 30.72-30.72s30.72 13.7216 30.72 30.72v90.3168h91.9552c16.9984 0 30.72 13.7216 30.72 30.72s-13.5168 30.72-30.5152 30.72z" fill="#26BEC9" p-id="3696"></path></svg>