<?xml version="1.0" standalone="no"?><!DOCTYPE svg PUBLIC "-//W3C//DTD SVG 1.1//EN" "http://www.w3.org/Graphics/SVG/1.1/DTD/svg11.dtd"><svg t="1618818728948" class="icon" viewBox="0 0 1024 1024" version="1.1" xmlns="http://www.w3.org/2000/svg" p-id="4654" xmlns:xlink="http://www.w3.org/1999/xlink" width="38" height="38"><defs><style type="text/css"></style></defs><path d="M614.4 752.64c-16.9984 0-30.72-13.7216-30.72-30.72v-471.04a51.2 51.2 0 0 0-51.2-51.2H51.2c-16.9984 0-30.72-13.7216-30.72-30.72s13.7216-30.72 30.72-30.72H532.48c62.0544 0 112.64 50.5856 112.64 112.64v471.04c0 16.9984-13.7216 30.72-30.72 30.72zM162.2016 783.36H71.68c-16.9984 0-30.72-13.7216-30.72-30.72s13.7216-30.72 30.72-30.72h90.5216c16.9984 0 30.72 13.7216 30.72 30.72s-13.7216 30.72-30.72 30.72z" fill="#2C2C2C" p-id="4655"></path><path d="M678.0928 783.36H389.12c-16.9984 0-30.72-13.7216-30.72-30.72s13.7216-30.72 30.72-30.72h288.9728c16.9984 0 30.72 13.7216 30.72 30.72s-13.7216 30.72-30.72 30.72zM952.32 783.36h-33.5872c-16.9984 0-30.72-13.7216-30.72-30.72s13.7216-30.72 30.72-30.72H942.08v-166.0928l-89.7024-161.5872H624.64c-16.9984 0-30.72-13.7216-30.72-30.72s13.7216-30.72 30.72-30.72h233.6768c18.6368 0 35.6352 10.0352 44.8512 26.4192l100.352 180.8384v192.3072c0 28.0576-22.9376 50.9952-51.2 50.9952z m-94.0032-389.12z" fill="#2C2C2C" p-id="4656"></path><path d="M952.32 558.08h-143.36a51.2 51.2 0 0 1-51.2-51.2v-122.88c0-16.9984 13.7216-30.72 30.72-30.72s30.72 13.7216 30.72 30.72v112.64h133.12c16.9984 0 30.72 13.7216 30.72 30.72s-13.7216 30.72-30.72 30.72zM266.24 885.76c-67.7888 0-122.88-55.0912-122.88-122.88s55.0912-122.88 122.88-122.88 122.88 55.0912 122.88 122.88-55.0912 122.88-122.88 122.88z m0-184.32c-33.792 0-61.44 27.648-61.44 61.44s27.648 61.44 61.44 61.44 61.44-27.648 61.44-61.44-27.648-61.44-61.44-61.44zM798.72 885.76c-67.7888 0-122.88-55.0912-122.88-122.88s55.0912-122.88 122.88-122.88 122.88 55.0912 122.88 122.88-55.0912 122.88-122.88 122.88z m0-184.32c-33.792 0-61.44 27.648-61.44 61.44s27.648 61.44 61.44 61.44 61.44-27.648 61.44-61.44-27.648-61.44-61.44-61.44z" fill="#2C2C2C" p-id="4657"></path><path d="M358.4 353.28h-245.76c-16.9984 0-30.72-13.7216-30.72-30.72s13.7216-30.72 30.72-30.72h245.76c16.9984 0 30.72 13.7216 30.72 30.72s-13.7216 30.72-30.72 30.72zM419.84 496.64h-225.28c-16.9984 0-30.72-13.7216-30.72-30.72s13.7216-30.72 30.72-30.72h225.28c16.9984 0 30.72 13.7216 30.72 30.72s-13.7216 30.72-30.72 30.72z" fill="#26BEC9" p-id="4658"></path></svg>