<?xml version="1.0" standalone="no"?><!DOCTYPE svg PUBLIC "-//W3C//DTD SVG 1.1//EN" "http://www.w3.org/Graphics/SVG/1.1/DTD/svg11.dtd"><svg t="1618818670196" class="icon" viewBox="0 0 1024 1024" version="1.1" xmlns="http://www.w3.org/2000/svg" p-id="1487" xmlns:xlink="http://www.w3.org/1999/xlink" width="38" height="38"><defs><style type="text/css"></style></defs><path d="M522.472727 111.709091c101.934545 0 185.018182 83.083636 185.018182 185.018182s-83.083636 185.018182-185.018182 185.018182-185.018182-83.083636-185.018182-185.018182 82.850909-185.018182 185.018182-185.018182m0-46.545455c-127.767273 0-231.563636 103.563636-231.563636 231.563637s103.563636 231.563636 231.563636 231.563636 231.563636-103.563636 231.563637-231.563636-103.796364-231.563636-231.563637-231.563637zM784.290909 636.741818c70.516364 0 128 57.483636 128 128s-57.483636 128-128 128H260.654545a128.232727 128.232727 0 0 1-128-128c0-70.516364 57.483636-128 128-128h523.636364m0-46.545454H260.654545c-96.349091 0-174.545455 78.196364-174.545454 174.545454 0 96.349091 78.196364 174.545455 174.545454 174.545455h523.636364c96.349091 0 174.545455-78.196364 174.545455-174.545455 0-96.349091-78.196364-174.545455-174.545455-174.545454z" p-id="1488"></path></svg>