<?xml version="1.0" standalone="no"?><!DOCTYPE svg PUBLIC "-//W3C//DTD SVG 1.1//EN" "http://www.w3.org/Graphics/SVG/1.1/DTD/svg11.dtd"><svg t="1618818757708" class="icon" viewBox="0 0 1024 1024" version="1.1" xmlns="http://www.w3.org/2000/svg" p-id="6034" xmlns:xlink="http://www.w3.org/1999/xlink" width="38" height="38"><defs><style type="text/css"></style></defs><path d="M791.7568 998.4H221.5936c-85.4016 0-154.8288-67.1744-154.8288-149.504V175.104c0-82.5344 69.4272-149.504 154.8288-149.504h581.0176c85.4016 0 154.8288 67.1744 154.8288 149.504v280.1664l-6.5536 391.9872c-1.4336 83.3536-72.9088 151.1424-159.1296 151.1424zM221.5936 87.04c-51.6096 0-93.3888 39.5264-93.3888 88.064v673.5872c0 48.5376 41.984 88.064 93.3888 88.064h570.1632c53.0432 0 96.8704-40.7552 97.6896-90.7264l6.5536-391.7824V175.104c0-48.5376-41.984-88.064-93.3888-88.064H221.5936z m705.1264 367.8208z" fill="#2C2C2C" p-id="6035"></path><path d="M726.4256 329.1136H482.9184c-16.9984 0-30.72-13.7216-30.72-30.72s13.7216-30.72 30.72-30.72h243.5072c16.9984 0 30.72 13.7216 30.72 30.72s-13.7216 30.72-30.72 30.72zM726.4256 542.72H482.9184c-16.9984 0-30.72-13.7216-30.72-30.72s13.7216-30.72 30.72-30.72h243.5072c16.9984 0 30.72 13.7216 30.72 30.72s-13.7216 30.72-30.72 30.72zM726.4256 756.3264H482.9184c-16.9984 0-30.72-13.7216-30.72-30.72s13.7216-30.72 30.72-30.72h243.5072c16.9984 0 30.72 13.7216 30.72 30.72s-13.7216 30.72-30.72 30.72z" fill="#2C2C2C" p-id="6036"></path><path d="M306.176 379.904c-5.12 0-10.4448-1.2288-15.36-4.096l-50.5856-29.0816c-14.7456-8.3968-19.8656-27.2384-11.264-41.984 8.3968-14.7456 27.2384-19.6608 41.984-11.264l24.9856 14.336 54.272-86.6304c9.0112-14.336 28.0576-18.6368 42.3936-9.6256 14.336 9.0112 18.6368 28.0576 9.6256 42.3936l-70.0416 111.616c-5.7344 9.216-15.7696 14.336-26.0096 14.336zM306.176 585.9328c-5.12 0-10.4448-1.2288-15.36-4.096l-50.5856-29.0816c-14.7456-8.3968-19.8656-27.2384-11.264-41.984 8.3968-14.7456 27.2384-19.6608 41.984-11.264l24.9856 14.336 54.272-86.6304c9.0112-14.336 28.0576-18.6368 42.3936-9.6256 14.336 9.0112 18.6368 28.0576 9.6256 42.3936l-70.0416 111.616c-5.7344 9.216-15.7696 14.336-26.0096 14.336zM306.176 792.1664c-5.12 0-10.4448-1.2288-15.36-4.096l-50.5856-29.0816c-14.7456-8.3968-19.8656-27.2384-11.264-41.984 8.3968-14.7456 27.2384-19.6608 41.984-11.264l24.9856 14.336 54.272-86.6304c9.0112-14.336 28.0576-18.6368 42.3936-9.6256 14.336 9.0112 18.6368 28.0576 9.6256 42.3936l-70.0416 111.616c-5.7344 9.216-15.7696 14.336-26.0096 14.336z" fill="#26BEC9" p-id="6037"></path></svg>