<?xml version="1.0" standalone="no"?><!DOCTYPE svg PUBLIC "-//W3C//DTD SVG 1.1//EN" "http://www.w3.org/Graphics/SVG/1.1/DTD/svg11.dtd"><svg t="1618818674771" class="icon" viewBox="0 0 1024 1024" version="1.1" xmlns="http://www.w3.org/2000/svg" p-id="1760" xmlns:xlink="http://www.w3.org/1999/xlink" width="38" height="38"><defs><style type="text/css"></style></defs><path d="M455.8848 998.4H208.2816c-82.5344 0-149.504-67.1744-149.504-149.504V175.104c0-82.5344 67.1744-149.504 149.504-149.504h556.032c82.5344 0 149.504 67.1744 149.504 149.504V454.656c0 16.9984-13.7216 30.72-30.72 30.72s-30.72-13.7216-30.72-30.72V175.104c0-48.5376-39.5264-88.064-88.064-88.064H208.2816c-48.5376 0-88.064 39.5264-88.064 88.064v673.5872c0 48.5376 39.5264 88.064 88.064 88.064h247.3984c16.9984 0 30.72 13.7216 30.72 30.72s-13.5168 30.9248-30.5152 30.9248z" fill="#2C2C2C" p-id="1761"></path><path d="M473.7024 291.84H257.2288c-16.9984 0-30.72-13.7216-30.72-30.72s13.7216-30.72 30.72-30.72h216.4736c16.9984 0 30.72 13.7216 30.72 30.72s-13.7216 30.72-30.72 30.72zM473.7024 455.68H257.2288c-16.9984 0-30.72-13.7216-30.72-30.72s13.7216-30.72 30.72-30.72h216.4736c16.9984 0 30.72 13.7216 30.72 30.72s-13.7216 30.72-30.72 30.72zM719.4624 998.4c-135.5776 0-245.76-110.1824-245.76-245.76s110.1824-245.76 245.76-245.76 245.76 110.1824 245.76 245.76-110.1824 245.76-245.76 245.76z m0-430.08c-101.5808 0-184.32 82.7392-184.32 184.32s82.7392 184.32 184.32 184.32 184.32-82.7392 184.32-184.32-82.7392-184.32-184.32-184.32z" fill="#2C2C2C" p-id="1762"></path><path d="M862.8224 629.76l-184.32 81.92-81.92 163.84 163.84-81.92z" fill="#26BEC9" p-id="1763"></path></svg>