<?xml version="1.0" standalone="no"?><!DOCTYPE svg PUBLIC "-//W3C//DTD SVG 1.1//EN" "http://www.w3.org/Graphics/SVG/1.1/DTD/svg11.dtd"><svg t="1618818784329" class="icon" viewBox="0 0 1024 1024" version="1.1" xmlns="http://www.w3.org/2000/svg" p-id="7545" xmlns:xlink="http://www.w3.org/1999/xlink" width="38" height="38"><defs><style type="text/css"></style></defs><path d="M641.2288 245.3504H347.136c-39.5264 0-71.68-32.1536-71.68-71.68V96.0512c0-16.9984 13.7216-30.72 30.72-30.72s30.72 13.7216 30.72 30.72v77.6192c0 5.7344 4.5056 10.24 10.24 10.24H641.024c5.7344 0 10.24-4.5056 10.24-10.24V96.0512c0-16.9984 13.7216-30.72 30.72-30.72s30.72 13.7216 30.72 30.72v77.6192c0.2048 39.5264-31.9488 71.68-71.4752 71.68zM678.5024 408.576h-368.64c-16.9984 0-30.72-13.7216-30.72-30.72s13.7216-30.72 30.72-30.72h368.64c16.9984 0 30.72 13.7216 30.72 30.72s-13.7216 30.72-30.72 30.72zM453.2224 572.416h-143.36c-16.9984 0-30.72-13.7216-30.72-30.72s13.7216-30.72 30.72-30.72h143.36c16.9984 0 30.72 13.7216 30.72 30.72s-13.7216 30.72-30.72 30.72z" fill="#2C2C2C" p-id="7546"></path><path d="M464.0768 1004.9536H216.4736c-82.5344 0-149.504-67.1744-149.504-149.504V181.8624c0-82.5344 67.1744-149.504 149.504-149.504h556.032c82.5344 0 149.504 67.1744 149.504 149.504v279.552c0 16.9984-13.7216 30.72-30.72 30.72s-30.72-13.7216-30.72-30.72V181.8624c0-48.5376-39.5264-88.064-88.064-88.064H216.4736c-48.5376 0-88.064 39.5264-88.064 88.064v673.5872c0 48.5376 39.5264 88.064 88.064 88.064h247.3984c16.9984 0 30.72 13.7216 30.72 30.72s-13.5168 30.72-30.5152 30.72z" fill="#2C2C2C" p-id="7547"></path><path d="M727.6544 1004.9536c-135.5776 0-245.76-110.1824-245.76-245.76s110.1824-245.76 245.76-245.76 245.76 110.1824 245.76 245.76-110.1824 245.76-245.76 245.76z m0-430.08c-101.5808 0-184.32 82.7392-184.32 184.32s82.7392 184.32 184.32 184.32 184.32-82.7392 184.32-184.32-82.7392-184.32-184.32-184.32z" fill="#2C2C2C" p-id="7548"></path><path d="M688.7424 707.3792v119.3984" p-id="7549"></path><path d="M688.7424 857.4976c-16.9984 0-30.72-13.7216-30.72-30.72v-119.3984c0-16.9984 13.7216-30.72 30.72-30.72s30.72 13.7216 30.72 30.72v119.3984c0 16.9984-13.7216 30.72-30.72 30.72z" fill="#26BEC9" p-id="7550"></path><path d="M791.1424 707.3792v119.3984" p-id="7551"></path><path d="M791.1424 857.4976c-16.9984 0-30.72-13.7216-30.72-30.72v-119.3984c0-16.9984 13.7216-30.72 30.72-30.72s30.72 13.7216 30.72 30.72v119.3984c0 16.9984-13.7216 30.72-30.72 30.72z" fill="#26BEC9" p-id="7552"></path></svg>