<?xml version="1.0" standalone="no"?><!DOCTYPE svg PUBLIC "-//W3C//DTD SVG 1.1//EN" "http://www.w3.org/Graphics/SVG/1.1/DTD/svg11.dtd"><svg t="1618818698646" class="icon" viewBox="0 0 1024 1024" version="1.1" xmlns="http://www.w3.org/2000/svg" p-id="3143" xmlns:xlink="http://www.w3.org/1999/xlink" width="38" height="38"><defs><style type="text/css"></style></defs><path d="M511.7952 485.1712c-14.9504 0-29.2864-6.5536-39.3216-18.6368L409.6 390.7584l-62.6688 75.776c-13.9264 16.9984-36.4544 22.9376-57.344 15.5648-20.48-7.3728-33.5872-26.0096-33.5872-47.5136V65.3312c0-16.9984 13.7216-30.72 30.72-30.72s30.72 13.7216 30.72 30.72v340.3776l52.4288-63.488c19.6608-23.552 59.8016-23.552 79.2576 0l52.4288 63.488V65.3312c0-16.9984 13.7216-30.72 30.72-30.72s30.72 13.7216 30.72 30.72v369.2544c0 21.504-13.1072 40.1408-33.5872 47.5136-5.7344 2.048-11.6736 3.072-17.6128 3.072z" fill="#26BEC9" p-id="3144"></path><path d="M798.72 997.1712H225.28c-84.7872 0-153.6-68.8128-153.6-153.6V180.4288c0-84.7872 68.8128-153.6 153.6-153.6h573.44c84.7872 0 153.6 68.8128 153.6 153.6v663.1424c0 84.5824-68.8128 153.6-153.6 153.6zM225.28 88.2688c-50.7904 0-92.16 41.3696-92.16 92.16v663.1424c0 50.7904 41.3696 92.16 92.16 92.16h573.44c50.7904 0 92.16-41.3696 92.16-92.16V180.4288c0-50.7904-41.3696-92.16-92.16-92.16H225.28z" fill="#2C2C2C" p-id="3145"></path></svg>