<?xml version="1.0" standalone="no"?><!DOCTYPE svg PUBLIC "-//W3C//DTD SVG 1.1//EN" "http://www.w3.org/Graphics/SVG/1.1/DTD/svg11.dtd"><svg t="1618818707553" class="icon" viewBox="0 0 1024 1024" version="1.1" xmlns="http://www.w3.org/2000/svg" p-id="3555" xmlns:xlink="http://www.w3.org/1999/xlink" width="38" height="38"><defs><style type="text/css"></style></defs><path d="M492.544 998.4H203.9808c-82.5344 0-149.504-67.1744-149.504-149.504V175.104c0-82.5344 67.1744-149.504 149.504-149.504h556.032c82.5344 0 149.504 67.1744 149.504 149.504V536.576c0 16.9984-13.7216 30.72-30.72 30.72s-30.72-13.7216-30.72-30.72V175.104c0-48.5376-39.5264-88.064-88.064-88.064H203.9808c-48.5376 0-88.064 39.5264-88.064 88.064v673.5872c0 48.5376 39.5264 88.064 88.064 88.064h288.3584c16.9984 0 30.72 13.7216 30.72 30.72s-13.5168 30.9248-30.5152 30.9248z" fill="#2C2C2C" p-id="3556"></path><path d="M469.4016 291.84H252.928c-16.9984 0-30.72-13.7216-30.72-30.72s13.7216-30.72 30.72-30.72h216.4736c16.9984 0 30.72 13.7216 30.72 30.72s-13.7216 30.72-30.72 30.72zM469.4016 455.68H252.928c-16.9984 0-30.72-13.7216-30.72-30.72s13.7216-30.72 30.72-30.72h216.4736c16.9984 0 30.72 13.7216 30.72 30.72s-13.7216 30.72-30.72 30.72z" fill="#2C2C2C" p-id="3557"></path><path d="M649.4208 970.9568c-8.3968 0-16.7936-2.6624-23.9616-7.7824-12.6976-9.216-19.0464-24.576-16.384-40.1408l16.7936-97.4848-70.8608-69.0176a40.8576 40.8576 0 0 1 22.7328-69.8368l97.8944-14.1312 43.8272-88.6784a40.96 40.96 0 0 1 73.3184 0l43.8272 88.6784 97.8944 14.1312c15.5648 2.2528 28.2624 12.9024 33.1776 27.8528 4.9152 14.9504 0.8192 31.1296-10.4448 41.984l-70.8608 69.0176 16.7936 97.4848c2.6624 15.5648-3.4816 30.9248-16.384 40.1408-12.6976 9.216-29.2864 10.4448-43.2128 3.072l-87.4496-46.08-87.4496 46.08c-6.144 3.2768-12.6976 4.7104-19.2512 4.7104z m-21.7088-229.376l48.7424 47.5136a40.96 40.96 0 0 1 11.8784 36.2496l-11.4688 67.1744 60.2112-31.744c11.8784-6.144 26.2144-6.144 38.0928 0l60.416 31.744-11.4688-67.1744c-2.2528-13.5168 2.2528-27.0336 11.8784-36.2496l48.7424-47.5136-67.3792-9.8304c-13.312-1.8432-24.7808-10.24-30.72-22.3232l-30.1056-61.2352-30.1056 61.0304c-5.9392 12.0832-17.6128 20.48-30.9248 22.3232l-67.7888 10.0352z m5.7344 91.5456c0.2048 0 0.2048 0.2048 0 0z m245.3504 0c-0.2048 0 0 0 0 0z m-37.4784-150.9376h0.2048-0.2048z m-155.0336-11.0592z m139.6736 0z m-88.2688-60.0064z" fill="#26BEC9" p-id="3558"></path></svg>