<?xml version="1.0" standalone="no"?><!DOCTYPE svg PUBLIC "-//W3C//DTD SVG 1.1//EN" "http://www.w3.org/Graphics/SVG/1.1/DTD/svg11.dtd"><svg t="1618818704550" class="icon" viewBox="0 0 1024 1024" version="1.1" xmlns="http://www.w3.org/2000/svg" p-id="3418" xmlns:xlink="http://www.w3.org/1999/xlink" width="38" height="38"><defs><style type="text/css"></style></defs><path d="M798.72 997.1712H225.28c-84.7872 0-153.6-68.8128-153.6-153.6V180.4288c0-84.7872 68.8128-153.6 153.6-153.6h573.44c84.7872 0 153.6 68.8128 153.6 153.6v663.1424c0 84.5824-68.8128 153.6-153.6 153.6zM225.28 88.2688c-50.7904 0-92.16 41.3696-92.16 92.16v663.1424c0 50.7904 41.3696 92.16 92.16 92.16h573.44c50.7904 0 92.16-41.3696 92.16-92.16V180.4288c0-50.7904-41.3696-92.16-92.16-92.16H225.28z" fill="#2C2C2C" p-id="3419"></path><path d="M513.8432 537.6l-169.5744-217.9072a30.6176 30.6176 0 1 1 48.3328-37.6832l117.1456 150.7328 99.328-148.8896a30.72 30.72 0 1 1 51.2 33.9968l-146.432 219.7504z" fill="#26BEC9" p-id="3420"></path><path d="M655.36 515.8912H368.64c-16.9984 0-30.72-13.7216-30.72-30.72s13.7216-30.72 30.72-30.72h286.72c16.9984 0 30.72 13.7216 30.72 30.72s-13.7216 30.72-30.72 30.72zM655.36 638.7712H368.64c-16.9984 0-30.72-13.7216-30.72-30.72s13.7216-30.72 30.72-30.72h286.72c16.9984 0 30.72 13.7216 30.72 30.72s-13.7216 30.72-30.72 30.72z" fill="#26BEC9" p-id="3421"></path><path d="M512 761.6512c-16.9984 0-30.72-13.7216-30.72-30.72v-245.76c0-16.9984 13.7216-30.72 30.72-30.72s30.72 13.7216 30.72 30.72v245.76c0 16.9984-13.7216 30.72-30.72 30.72z" fill="#26BEC9" p-id="3422"></path></svg>