<?xml version="1.0" standalone="no"?><!DOCTYPE svg PUBLIC "-//W3C//DTD SVG 1.1//EN" "http://www.w3.org/Graphics/SVG/1.1/DTD/svg11.dtd"><svg t="1618818782149" class="icon" viewBox="0 0 1024 1024" version="1.1" xmlns="http://www.w3.org/2000/svg" p-id="7409" xmlns:xlink="http://www.w3.org/1999/xlink" width="38" height="38"><defs><style type="text/css"></style></defs><path d="M706.3552 518.3488H317.8496c-17.8176 0-32.3584 14.336-32.3584 32.3584 0 18.0224 14.5408 32.3584 32.3584 32.3584h388.5056c17.8176 0 32.3584-14.5408 32.3584-32.3584 0-17.8176-14.5408-32.3584-32.3584-32.3584z m0 161.9968H317.8496c-17.8176 0-32.3584 14.336-32.3584 32.3584 0 18.0224 14.5408 32.3584 32.3584 32.3584h388.5056c17.8176 0 32.3584-14.5408 32.3584-32.3584 0-18.0224-14.5408-32.3584-32.3584-32.3584z" fill="#26BEC9" p-id="7410"></path><path d="M680.7552 89.088l223.0272 223.0272v561.152c0 33.792-27.648 61.44-61.44 61.44H181.6576c-33.792 0-61.44-27.648-61.44-61.44V150.528c0-33.792 27.648-61.44 61.44-61.44h499.0976m25.6-61.44H181.6576c-67.7888 0-122.88 55.0912-122.88 122.88v722.7392c0 67.7888 55.0912 122.88 122.88 122.88h660.6848c67.7888 0 122.88-55.0912 122.88-122.88V286.72L706.3552 27.648z" fill="#333333" p-id="7411"></path><path d="M935.5264 376.6272H776.192c-84.7872 0-153.6-68.8128-153.6-153.6v-147.456h61.44v147.456c0 50.7904 41.3696 92.16 92.16 92.16h159.3344v61.44z" fill="#333333" p-id="7412"></path></svg>