<?xml version="1.0" standalone="no"?><!DOCTYPE svg PUBLIC "-//W3C//DTD SVG 1.1//EN" "http://www.w3.org/Graphics/SVG/1.1/DTD/svg11.dtd"><svg t="1618818751328" class="icon" viewBox="0 0 1024 1024" version="1.1" xmlns="http://www.w3.org/2000/svg" p-id="5759" xmlns:xlink="http://www.w3.org/1999/xlink" width="38" height="38"><defs><style type="text/css"></style></defs><path d="M916.0704 542.72h-552.96c-16.9984 0-30.72-13.7216-30.72-30.72s13.7216-30.72 30.72-30.72h552.96c16.9984 0 30.72 13.7216 30.72 30.72s-13.7216 30.72-30.72 30.72z" fill="#26BEC9" p-id="5760"></path><path d="M780.9024 727.4496A30.76096 30.76096 0 0 1 757.76 676.4544l145.6128-166.7072-160.768-138.4448a30.80192 30.80192 0 0 1 40.1408-46.6944l184.32 158.72c6.144 5.3248 10.0352 12.9024 10.6496 21.0944s-2.048 16.1792-7.5776 22.3232l-165.888 189.8496c-6.144 7.3728-14.7456 10.8544-23.3472 10.8544z" fill="#26BEC9" p-id="5761"></path><path d="M165.0688 973.0048c-61.6448 0-112.0256-49.9712-112.64-111.616L46.4896 170.5984c-0.2048-30.1056 11.264-58.368 32.3584-79.872a112.16896 112.16896 0 0 1 79.2576-33.792l690.5856-5.9392h1.024c29.696 0 57.7536 11.4688 78.848 32.3584a111.616 111.616 0 0 1 33.5872 79.4624l1.024 72.704c0.2048 16.9984-13.312 30.9248-30.3104 31.1296a30.3104 30.3104 0 0 1-31.1296-30.3104l-1.024-72.9088c-0.2048-13.9264-5.5296-26.624-15.36-36.2496s-22.7328-14.1312-36.2496-14.7456l-690.3808 5.9392c-13.7216 0.2048-26.624 5.5296-36.2496 15.36a51.4048 51.4048 0 0 0-14.5408 36.4544l5.9392 690.5856a51.26144 51.26144 0 0 0 51.2 50.7904h0.4096l690.5856-5.9392a51.22048 51.22048 0 0 0 50.7904-51.6096l-1.024-105.6768c-0.2048-16.9984 13.5168-30.9248 30.5152-30.9248 16.5888 0.2048 30.9248 13.5168 30.9248 30.5152l1.024 105.6768c0.6144 62.0544-49.5616 113.0496-111.616 113.664l-690.7904 5.7344h-0.8192z" fill="#2C2C2C" p-id="5762"></path></svg>