<?xml version="1.0" standalone="no"?><!DOCTYPE svg PUBLIC "-//W3C//DTD SVG 1.1//EN" "http://www.w3.org/Graphics/SVG/1.1/DTD/svg11.dtd"><svg t="1618818667399" class="icon" viewBox="0 0 1024 1024" version="1.1" xmlns="http://www.w3.org/2000/svg" p-id="1350" xmlns:xlink="http://www.w3.org/1999/xlink" width="38" height="38"><defs><style type="text/css"></style></defs><path d="M733.556364 132.421818l201.309091 369.803637-201.309091 369.803636H311.389091L109.847273 502.225455l201.309091-369.803637h422.4m27.461818-46.545454H283.694545L57.018182 502.225455l226.676363 416.34909H761.018182l226.676363-416.34909L761.018182 85.876364z" p-id="1351"></path><path d="M522.472727 688.407273c-102.632727 0-186.181818-83.549091-186.181818-186.181818s83.549091-186.181818 186.181818-186.181819 186.181818 83.549091 186.181818 186.181819-83.549091 186.181818-186.181818 186.181818z m0-325.818182c-77.032727 0-139.636364 62.603636-139.636363 139.636364s62.603636 139.636364 139.636363 139.636363 139.636364-62.603636 139.636364-139.636363-62.603636-139.636364-139.636364-139.636364z" p-id="1352"></path></svg>